# xmcd
#
# Track frame offsets:
#	150
#	14265
#	27300
#	41640
#	55885
#	70995
#	83950
#	97072
#	110260
#	123002
#	135565
#	149475
#	162277
#	173627
#	186685
#	199127
#	210865
#	223262
#
# Disc length: 3143 seconds
#
# Revision: 1
# Processed by: cddbd v1.5.2PL0 Copyright (c) Steve Scherf et al.
# Submitted via: audiograbber 1.83.01
#
DISCID=090c4512
DTITLE=Glinn, Lillian - Mae Glover - 1929 - 1931
DYEAR=1900
DGENRE=Blues
TTITLE0=Lillian Glinn - I'm Through
TTITLE1=Lillian Glinn - I Love That Thing
TTITLE2=Lillian Glinn - Don't Leave Me Daddy
TTITLE3=Lillian Glinn - Shreveport Blues
TTITLE4=Lillian Glinn - Moanin' Blues
TTITLE5=Lillian Glinn - Cravin' A Man Blues
TTITLE6=Mae Glover - Shake It Daddy
TTITLE7=Mae Glover - Pig Meat Mama
TTITLE8=Mae Glover - I Ain't Givin' Nobody None
TTITLE9=Mae Glover - Gas Man Blues
TTITLE10=Mae Glover - My Man Blues
TTITLE11=Mae Glover - Grasshopper Blues
TTITLE12=Mae Glover - Forty-Four Blues
TTITLE13=Mae Glover - Skeeter Blues
TTITLE14=Mae Glover - The Country Farm Blues
TTITLE15=Mae Glover - Hoboken Prison Blues
TTITLE16=Mae Glover - Two Timin' Woman
TTITLE17=Mae Glover - Good Hearted Woman
EXTD=
EXTT0=
EXTT1=
EXTT2=
EXTT3=
EXTT4=
EXTT5=
EXTT6=
EXTT7=
EXTT8=
EXTT9=
EXTT10=
EXTT11=
EXTT12=
EXTT13=
EXTT14=
EXTT15=
EXTT16=
EXTT17=
PLAYORDER=
